<mxfile host="65bd71144e">
    <diagram id="vwbJsP5kCBEH-EEFsKNK" name="Page-1">
        <mxGraphModel dx="968" dy="409" grid="1" gridSize="10" guides="1" tooltips="1" connect="1" arrows="1" fold="1" page="1" pageScale="1" pageWidth="850" pageHeight="1100" math="0" shadow="0">
            <root>
                <mxCell id="0"/>
                <mxCell id="1" parent="0"/>
                <mxCell id="80" value="&lt;h1&gt;inviteInstructorEmail&lt;/h1&gt;" style="text;html=1;resizable=0;autosize=1;align=center;verticalAlign=middle;points=[];fillColor=none;strokeColor=none;rounded=0;" vertex="1" parent="1">
                    <mxGeometry x="310" y="40" width="250" height="50" as="geometry"/>
                </mxCell>
                <mxCell id="81" style="edgeStyle=none;html=1;entryX=0.5;entryY=0;entryDx=0;entryDy=0;" edge="1" parent="1" source="82" target="84">
                    <mxGeometry relative="1" as="geometry"/>
                </mxCell>
                <mxCell id="82" value="&lt;span&gt;&lt;b&gt;instructors&lt;br&gt;&lt;/b&gt;id&lt;br&gt;upVotes&lt;br&gt;downVotes&lt;br&gt;emailedAt&lt;br&gt;reminders&lt;br&gt;nextR&lt;/span&gt;eminder&lt;span&gt;&lt;br&gt;&lt;/span&gt;&lt;div style=&quot;color: rgb(212 , 212 , 212) ; background-color: rgb(30 , 30 , 30) ; font-family: &amp;#34;menlo&amp;#34; , &amp;#34;monaco&amp;#34; , &amp;#34;courier new&amp;#34; , monospace ; line-height: 18px&quot;&gt;&lt;span style=&quot;color: #9cdcfe&quot;&gt;openedEmail&lt;/span&gt;&lt;/div&gt;&lt;span&gt;yes&lt;br&gt;no&lt;br&gt;later&lt;br&gt;introduced&lt;br&gt;condition&lt;br&gt;&lt;/span&gt;" style="shape=cylinder3;whiteSpace=wrap;html=1;boundedLbl=1;backgroundOutline=1;size=15;align=left;" vertex="1" parent="1">
                    <mxGeometry x="380" y="120" width="130" height="240" as="geometry"/>
                </mxCell>
                <mxCell id="83" style="edgeStyle=none;html=1;entryX=0.5;entryY=0;entryDx=0;entryDy=0;" edge="1" parent="1" source="84" target="98">
                    <mxGeometry relative="1" as="geometry"/>
                </mxCell>
                <mxCell id="84" value="For every instructor" style="ellipse;whiteSpace=wrap;html=1;" vertex="1" parent="1">
                    <mxGeometry x="385" y="392" width="120" height="50" as="geometry"/>
                </mxCell>
                <mxCell id="85" style="edgeStyle=none;html=1;" edge="1" parent="1" source="86" target="89">
                    <mxGeometry relative="1" as="geometry"/>
                </mxCell>
                <mxCell id="86" value="&lt;span&gt;&lt;b&gt;instructorConditions&lt;/b&gt;&lt;br&gt;condition&lt;br&gt;num&lt;br&gt;&lt;/span&gt;" style="shape=cylinder3;whiteSpace=wrap;html=1;boundedLbl=1;backgroundOutline=1;size=15;align=left;" vertex="1" parent="1">
                    <mxGeometry x="390" y="656" width="130" height="100" as="geometry"/>
                </mxCell>
                <mxCell id="87" value="Send the email&lt;span&gt;(email, firstname, lastname, major, condition = minCondition)&lt;/span&gt;" style="rounded=0;whiteSpace=wrap;html=1;" vertex="1" parent="1">
                    <mxGeometry x="310" y="991" width="270" height="40" as="geometry"/>
                </mxCell>
                <mxCell id="88" style="edgeStyle=none;html=1;entryX=0.5;entryY=0;entryDx=0;entryDy=0;" edge="1" parent="1" source="89" target="91">
                    <mxGeometry relative="1" as="geometry">
                        <mxPoint x="131" y="646" as="targetPoint"/>
                    </mxGeometry>
                </mxCell>
                <mxCell id="89" value="Get all instructorConditions" style="shape=trapezoid;perimeter=trapezoidPerimeter;whiteSpace=wrap;html=1;fixedSize=1;" vertex="1" parent="1">
                    <mxGeometry x="62" y="681" width="138" height="50" as="geometry"/>
                </mxCell>
                <mxCell id="90" style="edgeStyle=none;html=1;entryX=0.508;entryY=0.114;entryDx=0;entryDy=0;entryPerimeter=0;" edge="1" parent="1" source="91" target="95">
                    <mxGeometry relative="1" as="geometry"/>
                </mxCell>
                <mxCell id="91" value="Set&lt;br&gt;minCondNum = instructorConditions[0].num;&lt;br&gt;minCondition = instructorConditions[0].condition" style="rounded=0;whiteSpace=wrap;html=1;" vertex="1" parent="1">
                    <mxGeometry x="36" y="756" width="190" height="84" as="geometry"/>
                </mxCell>
                <mxCell id="92" value="Yes" style="edgeStyle=none;html=1;" edge="1" parent="1" source="93" target="94">
                    <mxGeometry x="-0.2121" y="19" relative="1" as="geometry">
                        <mxPoint as="offset"/>
                    </mxGeometry>
                </mxCell>
                <mxCell id="93" value="condition[i].num &amp;lt; minCondNum" style="rhombus;whiteSpace=wrap;html=1;rounded=0;shadow=1;labelBackgroundColor=none;strokeWidth=1;fontFamily=Verdana;fontSize=8;align=center;" vertex="1" parent="1">
                    <mxGeometry x="46.25" y="884" width="169.5" height="40" as="geometry"/>
                </mxCell>
                <mxCell id="94" value="Set&lt;br&gt;minCondNum = instructorConditions[i].num;&lt;br&gt;minCondition = instructorConditions[i].condition" style="rounded=0;whiteSpace=wrap;html=1;" vertex="1" parent="1">
                    <mxGeometry x="36" y="957" width="190" height="70" as="geometry"/>
                </mxCell>
                <mxCell id="95" value="For every condition, index i" style="swimlane;" vertex="1" parent="1">
                    <mxGeometry x="31" y="856" width="200" height="183" as="geometry"/>
                </mxCell>
                <mxCell id="96" style="edgeStyle=none;html=1;" edge="1" parent="1" source="97" target="86">
                    <mxGeometry relative="1" as="geometry">
                        <mxPoint x="450" y="640" as="targetPoint"/>
                    </mxGeometry>
                </mxCell>
                <mxCell id="97" value="Set&lt;br&gt;num++&lt;br&gt;Where condition == minCondition" style="rounded=0;whiteSpace=wrap;html=1;" vertex="1" parent="1">
                    <mxGeometry x="460" y="796" width="200" height="60" as="geometry"/>
                </mxCell>
                <mxCell id="98" value="upVotes - downVotes&lt;br&gt;&amp;gt;= 3 &amp;amp;&amp;amp;&lt;br&gt;(!reminders || reminders &amp;lt; 4) &amp;amp;&amp;amp;&lt;br&gt;(!nextReminder || nextReminder &amp;lt; now) &amp;amp;&amp;amp;&lt;br&gt;!yes &amp;amp;&amp;amp; !no &amp;amp;&amp;amp; !doNot&lt;br&gt;&amp;amp;&amp;amp; !introduced &amp;amp;&amp;amp;&lt;br&gt;major in communites" style="rhombus;whiteSpace=wrap;html=1;rounded=0;shadow=1;labelBackgroundColor=none;strokeWidth=1;fontFamily=Verdana;fontSize=8;align=center;" vertex="1" parent="1">
                    <mxGeometry x="280" y="473" width="330" height="154" as="geometry"/>
                </mxCell>
                <mxCell id="99" style="edgeStyle=none;html=1;" edge="1" parent="1" source="98" target="89">
                    <mxGeometry relative="1" as="geometry">
                        <mxPoint x="408.9080459770114" y="502.80459770114953" as="sourcePoint"/>
                    </mxGeometry>
                </mxCell>
                <mxCell id="100" value="Yes" style="edgeLabel;html=1;align=center;verticalAlign=middle;resizable=0;points=[];" vertex="1" connectable="0" parent="99">
                    <mxGeometry x="0.0011" relative="1" as="geometry">
                        <mxPoint x="64" y="-51" as="offset"/>
                    </mxGeometry>
                </mxCell>
                <mxCell id="101" value="Our Email address&lt;br&gt;Our Email Password" style="shape=parallelogram;perimeter=parallelogramPerimeter;whiteSpace=wrap;html=1;fixedSize=1;align=center;" vertex="1" parent="1">
                    <mxGeometry x="374.87" y="867" width="160.25" height="57" as="geometry"/>
                </mxCell>
                <mxCell id="102" value="Set&lt;br&gt;waitTime = 0" style="rounded=0;whiteSpace=wrap;html=1;" vertex="1" parent="1">
                    <mxGeometry x="260" y="850" width="110" height="50" as="geometry"/>
                </mxCell>
                <mxCell id="103" style="edgeStyle=none;html=1;startArrow=none;exitX=1;exitY=0.75;exitDx=0;exitDy=0;" edge="1" parent="1" source="107" target="105">
                    <mxGeometry relative="1" as="geometry">
                        <mxPoint x="760" y="670" as="targetPoint"/>
                        <mxPoint x="730" y="840" as="sourcePoint"/>
                        <Array as="points">
                            <mxPoint x="687" y="1040"/>
                        </Array>
                    </mxGeometry>
                </mxCell>
                <mxCell id="104" style="edgeStyle=none;html=1;" edge="1" parent="1" source="105" target="82">
                    <mxGeometry relative="1" as="geometry"/>
                </mxCell>
                <mxCell id="105" value="&lt;span&gt;Set&lt;br&gt;condition = minCondition;&lt;br&gt;&lt;/span&gt;emailedAt&lt;br&gt;remonders++ || reminders = 1;&lt;br&gt;&lt;span&gt;nextReminder = nextWeek();&lt;br&gt;&lt;/span&gt;" style="rounded=0;whiteSpace=wrap;html=1;align=left;" vertex="1" parent="1">
                    <mxGeometry x="637" y="592" width="100" height="118" as="geometry"/>
                </mxCell>
                <mxCell id="106" style="edgeStyle=none;html=1;entryX=0.5;entryY=1;entryDx=0;entryDy=0;" edge="1" parent="1" target="97">
                    <mxGeometry relative="1" as="geometry">
                        <mxPoint x="455" y="1030" as="targetPoint"/>
                        <mxPoint x="680" y="1040" as="sourcePoint"/>
                    </mxGeometry>
                </mxCell>
                <mxCell id="107" value="setTimeout(, waitTime)" style="swimlane;" vertex="1" parent="1">
                    <mxGeometry x="290" y="951" width="310" height="139" as="geometry"/>
                </mxCell>
                <mxCell id="108" value="&lt;div style=&quot;color: rgb(212 , 212 , 212) ; background-color: rgb(30 , 30 , 30) ; font-family: &amp;#34;menlo&amp;#34; , &amp;#34;monaco&amp;#34; , &amp;#34;courier new&amp;#34; , monospace ; line-height: 18px&quot;&gt;&lt;span style=&quot;color: #9cdcfe&quot;&gt;waitTime&lt;/span&gt; += &lt;span style=&quot;color: #b5cea8&quot;&gt;1000&lt;/span&gt; * (&lt;span style=&quot;color: #b5cea8&quot;&gt;1&lt;/span&gt; + &lt;span style=&quot;color: #9cdcfe&quot;&gt;Math&lt;/span&gt;.&lt;span style=&quot;color: #dcdcaa&quot;&gt;floor&lt;/span&gt;(&lt;span style=&quot;color: #9cdcfe&quot;&gt;Math&lt;/span&gt;.&lt;span style=&quot;color: #dcdcaa&quot;&gt;random&lt;/span&gt;() * &lt;span style=&quot;color: #b5cea8&quot;&gt;40&lt;/span&gt;))&lt;/div&gt;" style="rounded=0;whiteSpace=wrap;html=1;" vertex="1" parent="107">
                    <mxGeometry x="20" y="89" width="270" height="40" as="geometry"/>
                </mxCell>
                <mxCell id="109" style="edgeStyle=none;html=1;entryX=0;entryY=0.25;entryDx=0;entryDy=0;" edge="1" parent="1" source="94" target="107">
                    <mxGeometry relative="1" as="geometry"/>
                </mxCell>
                <mxCell id="110" style="edgeStyle=none;html=1;entryX=0.376;entryY=0.001;entryDx=0;entryDy=0;entryPerimeter=0;" edge="1" parent="1" source="101" target="107">
                    <mxGeometry relative="1" as="geometry">
                        <mxPoint x="385" y="534.9806126405583" as="targetPoint"/>
                    </mxGeometry>
                </mxCell>
                <mxCell id="111" style="edgeStyle=none;html=1;entryX=0.25;entryY=0;entryDx=0;entryDy=0;" edge="1" parent="1" source="102" target="107">
                    <mxGeometry relative="1" as="geometry"/>
                </mxCell>
            </root>
        </mxGraphModel>
    </diagram>
</mxfile>